<svg viewBox="0 0 600 400" xmlns="http://www.w3.org/2000/svg">
  <defs>
    <linearGradient id="blueGreen" x1="0%" y1="0%" x2="100%" y2="0%">
      <stop offset="0%" style="stop-color:#1E3A8A;stop-opacity:1" />
      <stop offset="100%" style="stop-color:#10B981;stop-opacity:1" />
    </linearGradient>
    <filter id="glow">
      <feGaussianBlur stdDeviation="3" result="coloredBlur"/>
      <feMerge>
        <feMergeNode in="coloredBlur"/>
        <feMergeNode in="SourceGraphic"/>
      </feMerge>
    </filter>
  </defs>
  
  <!-- Left side - scattered/unorganized state -->
  <g opacity="0.3">
    <circle cx="80" cy="120" r="8" fill="#1E3A8A" opacity="0.4"/>
    <circle cx="120" cy="180" r="6" fill="#1E3A8A" opacity="0.3"/>
    <circle cx="60" cy="220" r="7" fill="#1E3A8A" opacity="0.35"/>
    <circle cx="100" cy="280" r="5" fill="#1E3A8A" opacity="0.3"/>
    <circle cx="140" cy="250" r="9" fill="#1E3A8A" opacity="0.4"/>
  </g>
  
  <!-- Connection lines showing transformation -->
  <g stroke="#1E3A8A" stroke-width="1" opacity="0.2">
    <path d="M 80 120 Q 200 150 300 200" fill="none"/>
    <path d="M 120 180 Q 220 180 300 200" fill="none"/>
    <path d="M 60 220 Q 180 210 300 200" fill="none"/>
  </g>
  
  <!-- Center - convergence point -->
  <g transform="translate(300, 200)">
    <circle cx="-25" cy="0" r="40" stroke="#1E3A8A" stroke-width="2" fill="none" opacity="0.6"/>
    <circle cx="25" cy="0" r="40" stroke="#10B981" stroke-width="2" fill="none" opacity="0.6"/>
    <ellipse cx="0" cy="0" rx="25" ry="40" fill="url(#blueGreen)" opacity="0.1"/>
    <circle cx="0" cy="0" r="8" fill="url(#blueGreen)" filter="url(#glow)"/>
  </g>
  
  <!-- Right side - organized/clear outcome -->
  <g>
    <circle cx="420" cy="240" r="12" fill="#10B981" opacity="0.7"/>
    <circle cx="460" cy="200" r="14" fill="#10B981" opacity="0.75"/>
    <circle cx="500" cy="160" r="16" fill="#10B981" opacity="0.8"/>
    <circle cx="540" cy="120" r="18" fill="#10B981" opacity="0.85"/>
    <path d="M 420 240 L 460 200 L 500 160 L 540 120" 
          stroke="#10B981" stroke-width="2" fill="none" opacity="0.4"
          stroke-dasharray="5,5"/>
  </g>
  
  <!-- Decorative elements -->
  <g opacity="0.15">
    <circle cx="520" cy="80" r="25" stroke="#10B981" stroke-width="1" fill="none"/>
    <circle cx="520" cy="80" r="35" stroke="#10B981" stroke-width="0.5" fill="none"/>
    <circle cx="80" cy="320" r="20" stroke="#1E3A8A" stroke-width="1" fill="none"/>
    <circle cx="80" cy="320" r="30" stroke="#1E3A8A" stroke-width="0.5" fill="none"/>
  </g>
  
  <!-- Small floating elements for depth -->
  <g opacity="0.2">
    <circle cx="250" cy="100" r="3" fill="#1E3A8A"/>
    <circle cx="350" cy="120" r="4" fill="#10B981"/>
    <circle cx="380" cy="280" r="3" fill="#10B981"/>
    <circle cx="180" cy="140" r="3" fill="#1E3A8A"/>
    <circle cx="450" cy="300" r="4" fill="#10B981"/>
  </g>
</svg>